<svg width="154" height="276" viewBox="0 0 154 276" fill="none" xmlns="http://www.w3.org/2000/svg">
	<rect x="0.5" y="0.5" width="120" height="47" fill="#D7B7B7" stroke="black"
		data-duckwave-os-id="1" />
	<rect x="33.5" y="228.5" width="120" height="47" fill="#D7B7B7" stroke="black" />
	<path
		d="M92.148 229.235C92.8298 229.705 93.764 229.534 94.2345 228.852L101.903 217.741C102.373 217.059 102.202 216.125 101.52 215.655C100.838 215.184 99.9041 215.355 99.4335 216.037L92.6175 225.913L82.7412 219.097C82.0593 218.627 81.1252 218.798 80.6546 219.48C80.1841 220.162 80.3553 221.096 81.0371 221.566L92.148 229.235ZM58.5246 48.2705L91.5246 228.27L94.4754 227.73L61.4754 47.7295L58.5246 48.2705Z"
		fill="black" />
	<path
		d="M20.6 27.716V28.544H30.428V27.716H20.6ZM21.452 20.168V20.984H29.504V20.168H21.452ZM21.476 24.752V25.568H29.492V24.752H21.476ZM23.144 20.924V24.836H24.14V20.924H23.144ZM26.84 20.924V24.836H27.824V20.924H26.84ZM31.6391 27.776V28.604H41.4671V27.776H31.6391ZM36.0311 25.448V28.124H37.0271V25.448H36.0311ZM32.8271 19.892V20.696H39.2711V22.376H32.8631V25.352H33.8471V23.18H40.2551V19.892H32.8271ZM32.8631 24.932V25.748H40.5071V24.932H32.8631ZM46.9501 22.964V23.792H49.0261V22.964H46.9501ZM44.9221 20.108V22.172C44.9221 24.032 44.0341 25.976 42.5461 26.852L43.1701 27.608C44.7541 26.636 45.7021 24.44 45.7021 22.172V20.108H44.9221ZM45.1141 20.108V22.136C45.1141 24.248 45.9901 26.408 47.5501 27.368L48.1261 26.588C46.6981 25.724 45.8821 23.876 45.8821 22.136V20.108H45.1141ZM50.9341 19.088V29.936H51.8941V19.088H50.9341ZM48.7381 19.316V29.396H49.6741V19.316H48.7381ZM58.0612 19.832V20.66C58.0612 22.508 56.0212 24.164 54.1132 24.524L54.5572 25.352C56.7292 24.86 58.9252 23.024 58.9252 20.66V19.832H58.0612ZM58.2412 19.832V20.66C58.2412 23.036 60.4492 24.86 62.6092 25.352L63.0532 24.524C61.1572 24.164 59.1052 22.52 59.1052 20.66V19.832H58.2412ZM53.7172 27.656V28.472H63.5452V27.656H53.7172ZM72.0883 19.076V29.936H73.0963V19.076H72.0883ZM72.8203 23.48V24.308H74.8243V23.48H72.8203ZM69.3163 20.252V20.408C69.3163 23.276 67.8163 25.592 64.8163 27.116L65.3683 27.884C68.8723 26.12 70.2883 23.336 70.2883 20.252H69.3163ZM65.3203 20.252V21.068H69.8323V20.252H65.3203ZM80.1543 19.628V23.036H85.1943V19.628H80.1543ZM84.2103 20.408V22.244H81.1383V20.408H84.2103ZM82.2423 24.548V26.96H83.2383V24.548H82.2423ZM87.0543 19.088V27.344H88.0503V19.088H87.0543ZM80.6463 28.88V29.696H88.3143V28.88H80.6463ZM80.6463 26.54V29.108H81.6423V26.54H80.6463ZM79.2423 24.896C81.2943 24.884 83.8743 24.836 86.1783 24.56L86.1063 23.828C83.8383 24.032 81.2223 24.068 79.1103 24.068L79.2423 24.896ZM84.8463 25.496V26.228H87.3063V25.496H84.8463ZM94.6854 20.252V20.42C94.6854 23.276 93.2814 25.58 90.2094 27.104L90.7374 27.884C94.3134 26.12 95.6574 23.348 95.6574 20.252H94.6854ZM90.6774 20.252V21.068H95.1774V20.252H90.6774ZM98.1294 19.076V29.924H99.1254V19.076H98.1294ZM95.2614 22.052V22.856H98.3334V22.052H95.2614ZM95.1414 24.968V25.784H98.2134V24.968H95.1414Z"
		fill="black" />
</svg>