<svg width="288" height="375" viewBox="0 0 288 375" fill="none" xmlns="http://www.w3.org/2000/svg">
	<rect x="28.5" y="327.5" width="120" height="47" fill="#D7B7B7" stroke="black" />
	<rect x="0.5" y="0.5" width="287" height="48" fill="#FFE599" stroke="black" />
	<path
		d="M69.5143 29V19.5455H75.3772V20.7734H70.9408V23.6541H74.9571V24.8775H70.9408V29H69.5143ZM81.0682 26.0593V21.9091H82.4531V29H81.0959V27.772H81.022C80.8589 28.1506 80.5973 28.466 80.2372 28.7184C79.8802 28.9677 79.4355 29.0923 78.9031 29.0923C78.4476 29.0923 78.0444 28.9923 77.6935 28.7923C77.3458 28.5891 77.0719 28.2891 76.8718 27.892C76.6748 27.495 76.5763 27.0041 76.5763 26.4194V21.9091H77.9567V26.2532C77.9567 26.7364 78.0906 27.1211 78.3583 27.4073C78.6261 27.6935 78.9738 27.8366 79.4016 27.8366C79.6602 27.8366 79.9171 27.772 80.1726 27.6428C80.4311 27.5135 80.645 27.3181 80.8143 27.0565C80.9866 26.7949 81.0713 26.4625 81.0682 26.0593ZM85.6881 24.7898V29H84.3078V21.9091H85.6327V23.0632H85.7204C85.8836 22.6877 86.139 22.3861 86.4868 22.1584C86.8376 21.9306 87.2793 21.8168 87.8117 21.8168C88.2949 21.8168 88.7181 21.9183 89.0812 22.1214C89.4444 22.3215 89.726 22.62 89.926 23.017C90.1261 23.4141 90.2261 23.9049 90.2261 24.4897V29H88.8458V24.6559C88.8458 24.1419 88.7119 23.7403 88.4442 23.451C88.1764 23.1586 87.8086 23.0124 87.3408 23.0124C87.0207 23.0124 86.7361 23.0817 86.4868 23.2202C86.2406 23.3587 86.0451 23.5618 85.9005 23.8295C85.7589 24.0942 85.6881 24.4143 85.6881 24.7898ZM95.0642 29.1431C94.3779 29.1431 93.787 28.9877 93.2915 28.6768C92.799 28.3629 92.4205 27.9305 92.1558 27.3796C91.8911 26.8287 91.7588 26.1978 91.7588 25.4869C91.7588 24.7667 91.8942 24.1312 92.165 23.5803C92.4359 23.0263 92.8175 22.5939 93.3099 22.283C93.8023 21.9722 94.3825 21.8168 95.0503 21.8168C95.5889 21.8168 96.069 21.9168 96.4907 22.1168C96.9123 22.3138 97.2524 22.5908 97.5109 22.9478C97.7725 23.3048 97.9279 23.7218 97.9772 24.1989H96.6338C96.5599 23.8665 96.3907 23.5803 96.126 23.3402C95.8644 23.1001 95.5135 22.9801 95.0734 22.9801C94.6887 22.9801 94.3517 23.0817 94.0624 23.2848C93.7762 23.4848 93.5531 23.7711 93.393 24.1435C93.233 24.5128 93.153 24.9498 93.153 25.4545C93.153 25.9716 93.2314 26.4179 93.3884 26.7933C93.5454 27.1688 93.767 27.4596 94.0532 27.6658C94.3425 27.872 94.6826 27.9751 95.0734 27.9751C95.335 27.9751 95.572 27.9274 95.7844 27.832C95.9998 27.7335 96.1798 27.5935 96.3245 27.4119C96.4722 27.2304 96.5753 27.0118 96.6338 26.7564H97.9772C97.9279 27.215 97.7787 27.6243 97.5294 27.9844C97.2801 28.3445 96.9462 28.6276 96.5276 28.8338C96.1121 29.04 95.6243 29.1431 95.0642 29.1431ZM102.763 21.9091V23.017H98.8901V21.9091H102.763ZM99.9288 20.2102H101.309V26.918C101.309 27.1857 101.349 27.3873 101.429 27.5227C101.509 27.6551 101.612 27.7459 101.738 27.7951C101.868 27.8413 102.008 27.8643 102.159 27.8643C102.269 27.8643 102.366 27.8567 102.449 27.8413C102.532 27.8259 102.597 27.8136 102.643 27.8043L102.893 28.9446C102.813 28.9754 102.699 29.0062 102.551 29.0369C102.403 29.0708 102.219 29.0893 101.997 29.0923C101.634 29.0985 101.295 29.0339 100.981 28.8984C100.667 28.763 100.414 28.5537 100.22 28.2706C100.026 27.9875 99.9288 27.632 99.9288 27.2042V20.2102ZM104.29 29V21.9091H105.671V29H104.29ZM104.987 20.815C104.747 20.815 104.541 20.735 104.369 20.5749C104.199 20.4118 104.115 20.2179 104.115 19.9933C104.115 19.7655 104.199 19.5716 104.369 19.4116C104.541 19.2485 104.747 19.1669 104.987 19.1669C105.227 19.1669 105.432 19.2485 105.601 19.4116C105.774 19.5716 105.86 19.7655 105.86 19.9933C105.86 20.2179 105.774 20.4118 105.601 20.5749C105.432 20.735 105.227 20.815 104.987 20.815ZM110.514 29.1431C109.85 29.1431 109.269 28.9908 108.774 28.6861C108.278 28.3814 107.894 27.9551 107.62 27.4073C107.346 26.8595 107.209 26.2193 107.209 25.4869C107.209 24.7513 107.346 24.1081 107.62 23.5572C107.894 23.0063 108.278 22.5785 108.774 22.2738C109.269 21.9691 109.85 21.8168 110.514 21.8168C111.179 21.8168 111.759 21.9691 112.255 22.2738C112.75 22.5785 113.135 23.0063 113.409 23.5572C113.683 24.1081 113.82 24.7513 113.82 25.4869C113.82 26.2193 113.683 26.8595 113.409 27.4073C113.135 27.9551 112.75 28.3814 112.255 28.6861C111.759 28.9908 111.179 29.1431 110.514 29.1431ZM110.519 27.9844C110.95 27.9844 111.307 27.8705 111.59 27.6428C111.873 27.415 112.082 27.1119 112.218 26.7333C112.356 26.3548 112.426 25.9377 112.426 25.4822C112.426 25.0298 112.356 24.6143 112.218 24.2358C112.082 23.8542 111.873 23.5479 111.59 23.3171C111.307 23.0863 110.95 22.9709 110.519 22.9709C110.085 22.9709 109.725 23.0863 109.439 23.3171C109.156 23.5479 108.945 23.8542 108.806 24.2358C108.671 24.6143 108.603 25.0298 108.603 25.4822C108.603 25.9377 108.671 26.3548 108.806 26.7333C108.945 27.1119 109.156 27.415 109.439 27.6428C109.725 27.8705 110.085 27.9844 110.519 27.9844ZM116.741 24.7898V29H115.361V21.9091H116.685V23.0632H116.773C116.936 22.6877 117.192 22.3861 117.54 22.1584C117.89 21.9306 118.332 21.8168 118.864 21.8168C119.348 21.8168 119.771 21.9183 120.134 22.1214C120.497 22.3215 120.779 22.62 120.979 23.017C121.179 23.4141 121.279 23.9049 121.279 24.4897V29H119.899V24.6559C119.899 24.1419 119.765 23.7403 119.497 23.451C119.229 23.1586 118.861 23.0124 118.394 23.0124C118.073 23.0124 117.789 23.0817 117.54 23.2202C117.293 23.3587 117.098 23.5618 116.953 23.8295C116.812 24.0942 116.741 24.4143 116.741 24.7898ZM125.194 29.157C124.744 29.157 124.338 29.0739 123.975 28.9077C123.612 28.7384 123.324 28.4937 123.112 28.1737C122.902 27.8536 122.798 27.4612 122.798 26.9964C122.798 26.5964 122.875 26.267 123.028 26.0085C123.182 25.75 123.39 25.5453 123.652 25.3945C123.913 25.2437 124.206 25.1299 124.529 25.0529C124.852 24.976 125.181 24.9175 125.517 24.8775C125.941 24.8282 126.286 24.7882 126.551 24.7575C126.816 24.7236 127.008 24.6697 127.128 24.5959C127.248 24.522 127.308 24.402 127.308 24.2358V24.2035C127.308 23.8003 127.194 23.4879 126.966 23.2663C126.742 23.0447 126.406 22.9339 125.96 22.9339C125.495 22.9339 125.129 23.037 124.861 23.2433C124.597 23.4464 124.413 23.6726 124.312 23.9219L123.015 23.6264C123.169 23.1955 123.393 22.8478 123.689 22.5831C123.987 22.3153 124.33 22.1214 124.718 22.0014C125.106 21.8783 125.514 21.8168 125.941 21.8168C126.225 21.8168 126.525 21.8506 126.842 21.9183C127.162 21.983 127.46 22.103 127.737 22.2784C128.017 22.4538 128.247 22.7047 128.425 23.0309C128.604 23.354 128.693 23.7741 128.693 24.2912V29H127.345V28.0305H127.29C127.2 28.209 127.066 28.3845 126.888 28.5568C126.709 28.7292 126.48 28.8723 126.2 28.9862C125.92 29.1 125.584 29.157 125.194 29.157ZM125.494 28.049C125.875 28.049 126.202 27.9736 126.472 27.8228C126.746 27.672 126.954 27.475 127.096 27.2319C127.24 26.9857 127.313 26.7225 127.313 26.4425V25.5284C127.263 25.5777 127.168 25.6238 127.026 25.6669C126.888 25.7069 126.729 25.7423 126.551 25.7731C126.372 25.8008 126.198 25.8269 126.029 25.8516C125.86 25.8731 125.718 25.8916 125.604 25.907C125.337 25.9408 125.092 25.9978 124.87 26.0778C124.652 26.1578 124.477 26.2732 124.344 26.424C124.215 26.5717 124.15 26.7687 124.15 27.0149C124.15 27.3565 124.276 27.6151 124.529 27.7905C124.781 27.9628 125.103 28.049 125.494 28.049ZM131.912 19.5455V29H130.531V19.5455H131.912ZM137.32 29V19.5455H140.69C141.426 19.5455 142.035 19.6793 142.518 19.9471C143.001 20.2148 143.363 20.5811 143.603 21.0458C143.843 21.5075 143.963 22.0276 143.963 22.6062C143.963 23.1879 143.842 23.7111 143.598 24.1758C143.358 24.6374 142.995 25.0037 142.509 25.2745C142.026 25.5423 141.418 25.6761 140.685 25.6761H138.368V24.4666H140.556C141.021 24.4666 141.398 24.3866 141.687 24.2266C141.976 24.0634 142.189 23.8419 142.324 23.5618C142.46 23.2817 142.527 22.9632 142.527 22.6062C142.527 22.2492 142.46 21.9322 142.324 21.6552C142.189 21.3782 141.975 21.1612 141.683 21.0043C141.393 20.8473 141.012 20.7688 140.538 20.7688H138.746V29H137.32ZM145.525 29V21.9091H146.859V23.0355H146.933C147.062 22.6539 147.29 22.3538 147.616 22.1353C147.945 21.9137 148.318 21.8029 148.733 21.8029C148.819 21.8029 148.921 21.806 149.038 21.8121C149.158 21.8183 149.252 21.826 149.319 21.8352V23.1555C149.264 23.1402 149.165 23.1232 149.024 23.1048C148.882 23.0832 148.741 23.0724 148.599 23.0724C148.273 23.0724 147.982 23.1417 147.727 23.2802C147.474 23.4156 147.274 23.6049 147.127 23.848C146.979 24.0881 146.905 24.362 146.905 24.6697V29H145.525ZM153.247 29.1431C152.582 29.1431 152.002 28.9908 151.506 28.6861C151.011 28.3814 150.626 27.9551 150.352 27.4073C150.078 26.8595 149.941 26.2193 149.941 25.4869C149.941 24.7513 150.078 24.1081 150.352 23.5572C150.626 23.0063 151.011 22.5785 151.506 22.2738C152.002 21.9691 152.582 21.8168 153.247 21.8168C153.912 21.8168 154.492 21.9691 154.987 22.2738C155.483 22.5785 155.867 23.0063 156.141 23.5572C156.415 24.1081 156.552 24.7513 156.552 25.4869C156.552 26.2193 156.415 26.8595 156.141 27.4073C155.867 27.9551 155.483 28.3814 154.987 28.6861C154.492 28.9908 153.912 29.1431 153.247 29.1431ZM153.251 27.9844C153.682 27.9844 154.039 27.8705 154.322 27.6428C154.606 27.415 154.815 27.1119 154.95 26.7333C155.089 26.3548 155.158 25.9377 155.158 25.4822C155.158 25.0298 155.089 24.6143 154.95 24.2358C154.815 23.8542 154.606 23.5479 154.322 23.3171C154.039 23.0863 153.682 22.9709 153.251 22.9709C152.817 22.9709 152.457 23.0863 152.171 23.3171C151.888 23.5479 151.677 23.8542 151.539 24.2358C151.403 24.6143 151.336 25.0298 151.336 25.4822C151.336 25.9377 151.403 26.3548 151.539 26.7333C151.677 27.1119 151.888 27.415 152.171 27.6428C152.457 27.8705 152.817 27.9844 153.251 27.9844ZM161.066 31.8068C160.503 31.8068 160.018 31.733 159.612 31.5852C159.209 31.4375 158.879 31.2421 158.624 30.9989C158.368 30.7558 158.178 30.4896 158.051 30.2003L159.238 29.7109C159.321 29.8464 159.432 29.9895 159.57 30.1403C159.712 30.2942 159.903 30.425 160.143 30.5327C160.386 30.6404 160.698 30.6942 161.08 30.6942C161.603 30.6942 162.035 30.5665 162.377 30.3111C162.719 30.0587 162.889 29.6555 162.889 29.1016V27.7074H162.802C162.719 27.8582 162.599 28.0259 162.442 28.2106C162.288 28.3952 162.075 28.5553 161.805 28.6907C161.534 28.8261 161.181 28.8938 160.747 28.8938C160.187 28.8938 159.683 28.763 159.233 28.5014C158.787 28.2367 158.433 27.8474 158.171 27.3335C157.913 26.8164 157.784 26.1809 157.784 25.4268C157.784 24.6728 157.911 24.0265 158.167 23.4879C158.425 22.9493 158.779 22.5369 159.229 22.2507C159.678 21.9614 160.187 21.8168 160.757 21.8168C161.197 21.8168 161.552 21.8906 161.823 22.0384C162.094 22.183 162.305 22.3523 162.456 22.5462C162.609 22.7401 162.728 22.9109 162.811 23.0586H162.913V21.9091H164.265V29.157C164.265 29.7663 164.124 30.2665 163.84 30.6573C163.557 31.0482 163.174 31.3375 162.691 31.5252C162.211 31.7129 161.669 31.8068 161.066 31.8068ZM161.052 27.7489C161.449 27.7489 161.785 27.6566 162.059 27.4719C162.335 27.2842 162.545 27.0165 162.686 26.6687C162.831 26.3178 162.903 25.8977 162.903 25.4084C162.903 24.9313 162.833 24.5112 162.691 24.1481C162.549 23.7849 162.342 23.5018 162.068 23.2987C161.794 23.0924 161.455 22.9893 161.052 22.9893C160.637 22.9893 160.29 23.0971 160.013 23.3125C159.736 23.5249 159.527 23.8142 159.386 24.1804C159.247 24.5466 159.178 24.956 159.178 25.4084C159.178 25.8731 159.249 26.2809 159.39 26.6317C159.532 26.9826 159.741 27.2565 160.018 27.4535C160.298 27.6504 160.643 27.7489 161.052 27.7489ZM166.116 29V21.9091H167.451V23.0355H167.524C167.654 22.6539 167.881 22.3538 168.208 22.1353C168.537 21.9137 168.909 21.8029 169.325 21.8029C169.411 21.8029 169.513 21.806 169.63 21.8121C169.75 21.8183 169.843 21.826 169.911 21.8352V23.1555C169.856 23.1402 169.757 23.1232 169.616 23.1048C169.474 23.0832 169.333 23.0724 169.191 23.0724C168.865 23.0724 168.574 23.1417 168.318 23.2802C168.066 23.4156 167.866 23.6049 167.718 23.848C167.571 24.0881 167.497 24.362 167.497 24.6697V29H166.116ZM173.106 29.157C172.656 29.157 172.25 29.0739 171.887 28.9077C171.524 28.7384 171.236 28.4937 171.024 28.1737C170.814 27.8536 170.71 27.4612 170.71 26.9964C170.71 26.5964 170.787 26.267 170.941 26.0085C171.094 25.75 171.302 25.5453 171.564 25.3945C171.825 25.2437 172.118 25.1299 172.441 25.0529C172.764 24.976 173.093 24.9175 173.429 24.8775C173.854 24.8282 174.198 24.7882 174.463 24.7575C174.728 24.7236 174.92 24.6697 175.04 24.5959C175.16 24.522 175.22 24.402 175.22 24.2358V24.2035C175.22 23.8003 175.106 23.4879 174.878 23.2663C174.654 23.0447 174.318 22.9339 173.872 22.9339C173.407 22.9339 173.041 23.037 172.773 23.2433C172.509 23.4464 172.326 23.6726 172.224 23.9219L170.927 23.6264C171.081 23.1955 171.305 22.8478 171.601 22.5831C171.899 22.3153 172.242 22.1214 172.63 22.0014C173.018 21.8783 173.426 21.8168 173.854 21.8168C174.137 21.8168 174.437 21.8506 174.754 21.9183C175.074 21.983 175.372 22.103 175.649 22.2784C175.929 22.4538 176.159 22.7047 176.337 23.0309C176.516 23.354 176.605 23.7741 176.605 24.2912V29H175.257V28.0305H175.202C175.112 28.209 174.978 28.3845 174.8 28.5568C174.621 28.7292 174.392 28.8723 174.112 28.9862C173.832 29.1 173.497 29.157 173.106 29.157ZM173.406 28.049C173.787 28.049 174.114 27.9736 174.384 27.8228C174.658 27.672 174.866 27.475 175.008 27.2319C175.152 26.9857 175.225 26.7225 175.225 26.4425V25.5284C175.175 25.5777 175.08 25.6238 174.938 25.6669C174.8 25.7069 174.641 25.7423 174.463 25.7731C174.284 25.8008 174.111 25.8269 173.941 25.8516C173.772 25.8731 173.63 25.8916 173.517 25.907C173.249 25.9408 173.004 25.9978 172.783 26.0778C172.564 26.1578 172.389 26.2732 172.256 26.424C172.127 26.5717 172.062 26.7687 172.062 27.0149C172.062 27.3565 172.189 27.6151 172.441 27.7905C172.693 27.9628 173.015 28.049 173.406 28.049ZM178.444 29V21.9091H179.768V23.0632H179.856C180.004 22.6723 180.246 22.3677 180.581 22.1491C180.916 21.9276 181.318 21.8168 181.786 21.8168C182.26 21.8168 182.657 21.9276 182.977 22.1491C183.3 22.3707 183.539 22.6754 183.692 23.0632H183.766C183.936 22.6847 184.205 22.383 184.574 22.1584C184.944 21.9306 185.384 21.8168 185.895 21.8168C186.538 21.8168 187.062 22.0183 187.469 22.4215C187.878 22.8247 188.083 23.4325 188.083 24.245V29H186.702V24.3743C186.702 23.8942 186.572 23.5464 186.31 23.331C186.048 23.1155 185.736 23.0078 185.373 23.0078C184.924 23.0078 184.574 23.1463 184.325 23.4233C184.076 23.6972 183.951 24.0496 183.951 24.4805V29H182.575V24.2866C182.575 23.9019 182.455 23.5926 182.215 23.3587C181.975 23.1248 181.663 23.0078 181.278 23.0078C181.016 23.0078 180.775 23.0771 180.553 23.2156C180.335 23.351 180.158 23.5402 180.022 23.7834C179.89 24.0265 179.824 24.3081 179.824 24.6282V29H178.444ZM189.933 29V21.9091H191.258V23.0632H191.345C191.493 22.6723 191.735 22.3677 192.07 22.1491C192.406 21.9276 192.807 21.8168 193.275 21.8168C193.749 21.8168 194.146 21.9276 194.466 22.1491C194.789 22.3707 195.028 22.6754 195.182 23.0632H195.256C195.425 22.6847 195.694 22.383 196.063 22.1584C196.433 21.9306 196.873 21.8168 197.384 21.8168C198.027 21.8168 198.552 22.0183 198.958 22.4215C199.367 22.8247 199.572 23.4325 199.572 24.245V29H198.192V24.3743C198.192 23.8942 198.061 23.5464 197.799 23.331C197.538 23.1155 197.225 23.0078 196.862 23.0078C196.413 23.0078 196.063 23.1463 195.814 23.4233C195.565 23.6972 195.44 24.0496 195.44 24.4805V29H194.065V24.2866C194.065 23.9019 193.945 23.5926 193.704 23.3587C193.464 23.1248 193.152 23.0078 192.767 23.0078C192.506 23.0078 192.264 23.0771 192.043 23.2156C191.824 23.351 191.647 23.5402 191.512 23.7834C191.379 24.0265 191.313 24.3081 191.313 24.6282V29H189.933ZM201.422 29V21.9091H202.802V29H201.422ZM202.119 20.815C201.879 20.815 201.673 20.735 201.501 20.5749C201.331 20.4118 201.247 20.2179 201.247 19.9933C201.247 19.7655 201.331 19.5716 201.501 19.4116C201.673 19.2485 201.879 19.1669 202.119 19.1669C202.359 19.1669 202.564 19.2485 202.733 19.4116C202.905 19.5716 202.992 19.7655 202.992 19.9933C202.992 20.2179 202.905 20.4118 202.733 20.5749C202.564 20.735 202.359 20.815 202.119 20.815ZM206.04 24.7898V29H204.659V21.9091H205.984V23.0632H206.072C206.235 22.6877 206.491 22.3861 206.838 22.1584C207.189 21.9306 207.631 21.8168 208.163 21.8168C208.646 21.8168 209.07 21.9183 209.433 22.1214C209.796 22.3215 210.078 22.62 210.278 23.017C210.478 23.4141 210.578 23.9049 210.578 24.4897V29H209.197V24.6559C209.197 24.1419 209.063 23.7403 208.796 23.451C208.528 23.1586 208.16 23.0124 207.692 23.0124C207.372 23.0124 207.088 23.0817 206.838 23.2202C206.592 23.3587 206.397 23.5618 206.252 23.8295C206.11 24.0942 206.04 24.4143 206.04 24.7898ZM215.402 31.8068C214.839 31.8068 214.354 31.733 213.948 31.5852C213.545 31.4375 213.215 31.2421 212.96 30.9989C212.704 30.7558 212.514 30.4896 212.387 30.2003L213.574 29.7109C213.657 29.8464 213.768 29.9895 213.906 30.1403C214.048 30.2942 214.239 30.425 214.479 30.5327C214.722 30.6404 215.034 30.6942 215.416 30.6942C215.939 30.6942 216.371 30.5665 216.713 30.3111C217.055 30.0587 217.225 29.6555 217.225 29.1016V27.7074H217.138C217.055 27.8582 216.935 28.0259 216.778 28.2106C216.624 28.3952 216.411 28.5553 216.141 28.6907C215.87 28.8261 215.517 28.8938 215.083 28.8938C214.523 28.8938 214.018 28.763 213.569 28.5014C213.123 28.2367 212.769 27.8474 212.507 27.3335C212.249 26.8164 212.12 26.1809 212.12 25.4268C212.12 24.6728 212.247 24.0265 212.503 23.4879C212.761 22.9493 213.115 22.5369 213.565 22.2507C214.014 21.9614 214.523 21.8168 215.093 21.8168C215.533 21.8168 215.888 21.8906 216.159 22.0384C216.43 22.183 216.641 22.3523 216.791 22.5462C216.945 22.7401 217.064 22.9109 217.147 23.0586H217.248V21.9091H218.601V29.157C218.601 29.7663 218.46 30.2665 218.176 30.6573C217.893 31.0482 217.51 31.3375 217.027 31.5252C216.547 31.7129 216.005 31.8068 215.402 31.8068ZM215.388 27.7489C215.785 27.7489 216.121 27.6566 216.394 27.4719C216.671 27.2842 216.881 27.0165 217.022 26.6687C217.167 26.3178 217.239 25.8977 217.239 25.4084C217.239 24.9313 217.168 24.5112 217.027 24.1481C216.885 23.7849 216.678 23.5018 216.404 23.2987C216.13 23.0924 215.791 22.9893 215.388 22.9893C214.973 22.9893 214.626 23.0971 214.349 23.3125C214.072 23.5249 213.863 23.8142 213.722 24.1804C213.583 24.5466 213.514 24.956 213.514 25.4084C213.514 25.8731 213.585 26.2809 213.726 26.6317C213.868 26.9826 214.077 27.2565 214.354 27.4535C214.634 27.6504 214.979 27.7489 215.388 27.7489Z"
		fill="black" />
	<path d="M103.764 327L81 219V174V134.735L149 49" stroke="black" />
</svg>