<svg width="288" height="375" viewBox="0 0 288 375" fill="none" xmlns="http://www.w3.org/2000/svg">
	<rect x="55.5" y="327.5" width="120" height="47" fill="#D7B7B7" stroke="black" />
	<rect x="0.5" y="0.5" width="287" height="48" fill="#6EA8FE" stroke="black" />
	<path
		d="M22.4418 22.5H21.2969C21.2292 22.1707 21.1107 21.8814 20.9415 21.6321C20.7753 21.3828 20.5721 21.1735 20.3321 21.0043C20.0951 20.8319 19.832 20.7027 19.5427 20.6165C19.2534 20.5303 18.9517 20.4872 18.6378 20.4872C18.0654 20.4872 17.5468 20.6319 17.0821 20.9212C16.6204 21.2105 16.2526 21.6367 15.9787 22.1999C15.7079 22.7631 15.5725 23.4541 15.5725 24.2727C15.5725 25.0914 15.7079 25.7823 15.9787 26.3455C16.2526 26.9087 16.6204 27.335 17.0821 27.6243C17.5468 27.9136 18.0654 28.0582 18.6378 28.0582C18.9517 28.0582 19.2534 28.0152 19.5427 27.929C19.832 27.8428 20.0951 27.7151 20.3321 27.5458C20.5721 27.3735 20.7753 27.1626 20.9415 26.9134C21.1107 26.661 21.2292 26.3717 21.2969 26.0455H22.4418C22.3556 26.5286 22.1987 26.9611 21.9709 27.3427C21.7432 27.7243 21.46 28.049 21.1215 28.3168C20.783 28.5814 20.4029 28.783 19.9812 28.9215C19.5627 29.06 19.1149 29.1293 18.6378 29.1293C17.8315 29.1293 17.1144 28.9323 16.4866 28.5384C15.8587 28.1444 15.3647 27.5843 15.0047 26.858C14.6446 26.1316 14.4645 25.2699 14.4645 24.2727C14.4645 23.2756 14.6446 22.4138 15.0047 21.6875C15.3647 20.9612 15.8587 20.401 16.4866 20.0071C17.1144 19.6132 17.8315 19.4162 18.6378 19.4162C19.1149 19.4162 19.5627 19.4854 19.9812 19.6239C20.4029 19.7624 20.783 19.9656 21.1215 20.2333C21.46 20.498 21.7432 20.8211 21.9709 21.2028C22.1987 21.5813 22.3556 22.0137 22.4418 22.5ZM28.6129 26.1009V21.9091H29.7024V29H28.6129V27.7997H28.539C28.3728 28.1598 28.1143 28.466 27.7635 28.7184C27.4126 28.9677 26.9694 29.0923 26.4339 29.0923C25.9907 29.0923 25.5968 28.9954 25.2521 28.8015C24.9074 28.6045 24.6366 28.3091 24.4396 27.9151C24.2426 27.5181 24.1441 27.018 24.1441 26.4148V21.9091H25.2336V26.3409C25.2336 26.858 25.3783 27.2704 25.6676 27.5781C25.9599 27.8859 26.3323 28.0398 26.7848 28.0398C27.0556 28.0398 27.331 27.9705 27.6111 27.832C27.8943 27.6935 28.1312 27.4812 28.322 27.195C28.5159 26.9087 28.6129 26.544 28.6129 26.1009ZM36.7206 23.4972L35.7419 23.7741C35.6803 23.611 35.5895 23.4525 35.4695 23.2987C35.3526 23.1417 35.1925 23.0124 34.9894 22.9109C34.7863 22.8093 34.5262 22.7585 34.2092 22.7585C33.7753 22.7585 33.4136 22.8585 33.1243 23.0586C32.8381 23.2556 32.695 23.5064 32.695 23.8111C32.695 24.0819 32.7935 24.2958 32.9905 24.4528C33.1874 24.6097 33.4952 24.7405 33.9138 24.8452L34.9663 25.1037C35.6003 25.2576 36.0727 25.493 36.3836 25.81C36.6944 26.1239 36.8498 26.5286 36.8498 27.0241C36.8498 27.4304 36.7329 27.7936 36.499 28.1136C36.2682 28.4337 35.945 28.6861 35.5295 28.8707C35.114 29.0554 34.6308 29.1477 34.0799 29.1477C33.3567 29.1477 32.7581 28.9908 32.2841 28.6768C31.8102 28.3629 31.5101 27.9044 31.3839 27.3011L32.418 27.0426C32.5165 27.4242 32.7027 27.7105 32.9766 27.9013C33.2536 28.0921 33.6152 28.1875 34.0615 28.1875C34.5693 28.1875 34.9725 28.0798 35.271 27.8643C35.5726 27.6458 35.7234 27.3842 35.7234 27.0795C35.7234 26.8333 35.6372 26.6271 35.4649 26.4609C35.2925 26.2917 35.0279 26.1655 34.6709 26.0824L33.489 25.8054C32.8397 25.6515 32.3626 25.413 32.0579 25.0898C31.7563 24.7636 31.6055 24.3558 31.6055 23.8665C31.6055 23.4664 31.7178 23.1125 31.9425 22.8047C32.1703 22.4969 32.4796 22.2553 32.8704 22.0799C33.2644 21.9045 33.7106 21.8168 34.2092 21.8168C34.9109 21.8168 35.4618 21.9706 35.8619 22.2784C36.2651 22.5862 36.5513 22.9924 36.7206 23.4972ZM41.5736 21.9091V22.8324H37.8989V21.9091H41.5736ZM38.9699 20.2102H40.0594V26.9688C40.0594 27.2765 40.1041 27.5073 40.1933 27.6612C40.2856 27.812 40.4026 27.9136 40.5442 27.9659C40.6888 28.0152 40.8412 28.0398 41.0012 28.0398C41.1212 28.0398 41.2197 28.0336 41.2967 28.0213C41.3736 28.0059 41.4351 27.9936 41.4813 27.9844L41.7029 28.9631C41.629 28.9908 41.5259 29.0185 41.3936 29.0462C41.2613 29.0769 41.0935 29.0923 40.8904 29.0923C40.5826 29.0923 40.281 29.0262 39.9856 28.8938C39.6932 28.7615 39.4501 28.5599 39.2562 28.2891C39.0654 28.0182 38.9699 27.6766 38.9699 27.2642V20.2102ZM46.017 29.1477C45.3768 29.1477 44.8152 28.9954 44.332 28.6907C43.8519 28.386 43.4764 27.9598 43.2056 27.4119C42.9378 26.8641 42.8039 26.224 42.8039 25.4915C42.8039 24.7528 42.9378 24.1081 43.2056 23.5572C43.4764 23.0063 43.8519 22.5785 44.332 22.2738C44.8152 21.9691 45.3768 21.8168 46.017 21.8168C46.6572 21.8168 47.2173 21.9691 47.6974 22.2738C48.1806 22.5785 48.5561 23.0063 48.8238 23.5572C49.0947 24.1081 49.2301 24.7528 49.2301 25.4915C49.2301 26.224 49.0947 26.8641 48.8238 27.4119C48.5561 27.9598 48.1806 28.386 47.6974 28.6907C47.2173 28.9954 46.6572 29.1477 46.017 29.1477ZM46.017 28.169C46.5033 28.169 46.9034 28.0444 47.2173 27.7951C47.5312 27.5458 47.7636 27.218 47.9144 26.8118C48.0652 26.4055 48.1406 25.9654 48.1406 25.4915C48.1406 25.0175 48.0652 24.5759 47.9144 24.1665C47.7636 23.7572 47.5312 23.4264 47.2173 23.174C46.9034 22.9216 46.5033 22.7955 46.017 22.7955C45.5307 22.7955 45.1306 22.9216 44.8167 23.174C44.5028 23.4264 44.2704 23.7572 44.1196 24.1665C43.9688 24.5759 43.8934 25.0175 43.8934 25.4915C43.8934 25.9654 43.9688 26.4055 44.1196 26.8118C44.2704 27.218 44.5028 27.5458 44.8167 27.7951C45.1306 28.0444 45.5307 28.169 46.017 28.169ZM50.8932 29V21.9091H51.9457V23.017H52.038C52.1858 22.6385 52.4243 22.3446 52.7536 22.1353C53.0829 21.9229 53.4784 21.8168 53.94 21.8168C54.4078 21.8168 54.7972 21.9229 55.108 22.1353C55.4219 22.3446 55.6666 22.6385 55.842 23.017H55.9159C56.0975 22.6508 56.3698 22.36 56.733 22.1445C57.0962 21.926 57.5317 21.8168 58.0395 21.8168C58.6735 21.8168 59.192 22.0153 59.5952 22.4123C59.9984 22.8062 60.2 23.4202 60.2 24.2543V29H59.1105V24.2543C59.1105 23.7311 58.9674 23.3571 58.6812 23.1325C58.3949 22.9078 58.0579 22.7955 57.6701 22.7955C57.1716 22.7955 56.7853 22.9463 56.5114 23.2479C56.2375 23.5464 56.1005 23.925 56.1005 24.3835V29H54.9926V24.1435C54.9926 23.7403 54.8618 23.4156 54.6002 23.1694C54.3386 22.9201 54.0016 22.7955 53.5892 22.7955C53.306 22.7955 53.0414 22.8709 52.7951 23.0217C52.552 23.1725 52.355 23.3817 52.2042 23.6495C52.0565 23.9142 51.9826 24.2204 51.9826 24.5682V29H50.8932ZM65.4789 20.5611V19.5455H72.5698V20.5611H69.5968V29H68.4519V20.5611H65.4789ZM74.0783 31.6591C73.8936 31.6591 73.7289 31.6437 73.5843 31.6129C73.4396 31.5852 73.3396 31.5575 73.2842 31.5298L73.5612 30.5696C73.8259 30.6373 74.0598 30.6619 74.2629 30.6435C74.466 30.625 74.6461 30.5342 74.803 30.3711C74.9631 30.2111 75.1093 29.951 75.2416 29.5909L75.4447 29.0369L72.8226 21.9091H74.0044L75.9618 27.5597H76.0356L77.993 21.9091H79.1748L76.1649 30.0341C76.0295 30.4003 75.8618 30.7035 75.6617 30.9435C75.4617 31.1867 75.2293 31.3667 74.9646 31.4837C74.703 31.6006 74.4076 31.6591 74.0783 31.6591ZM80.6129 31.6591V21.9091H81.6654V23.0355H81.7947C81.8747 22.9124 81.9855 22.7554 82.1271 22.5646C82.2717 22.3707 82.4779 22.1984 82.7457 22.0476C83.0165 21.8937 83.3828 21.8168 83.8444 21.8168C84.4415 21.8168 84.9678 21.966 85.4233 22.2646C85.8787 22.5631 86.2342 22.9863 86.4897 23.5341C86.7451 24.0819 86.8728 24.7282 86.8728 25.473C86.8728 26.224 86.7451 26.8749 86.4897 27.4258C86.2342 27.9736 85.8803 28.3983 85.4279 28.6999C84.9755 28.9985 84.4538 29.1477 83.8629 29.1477C83.4074 29.1477 83.0427 29.0723 82.7688 28.9215C82.4949 28.7676 82.284 28.5937 82.1363 28.3999C81.9886 28.2029 81.8747 28.0398 81.7947 27.9105H81.7024V31.6591H80.6129ZM81.6839 25.4545C81.6839 25.9901 81.7624 26.4625 81.9193 26.8718C82.0763 27.2781 82.3056 27.5966 82.6072 27.8274C82.9088 28.0552 83.2781 28.169 83.7152 28.169C84.1706 28.169 84.5507 28.049 84.8554 27.8089C85.1632 27.5658 85.394 27.2396 85.5479 26.8303C85.7049 26.4179 85.7833 25.9593 85.7833 25.4545C85.7833 24.956 85.7064 24.5066 85.5525 24.1065C85.4017 23.7034 85.1724 23.3848 84.8647 23.1509C84.56 22.9139 84.1768 22.7955 83.7152 22.7955C83.272 22.7955 82.8996 22.9078 82.598 23.1325C82.2964 23.354 82.0686 23.6649 81.9147 24.065C81.7608 24.462 81.6839 24.9252 81.6839 25.4545ZM91.5078 29.1477C90.8245 29.1477 90.2352 28.9969 89.7397 28.6953C89.2472 28.3906 88.8671 27.9659 88.5994 27.4212C88.3347 26.8733 88.2024 26.2363 88.2024 25.5099C88.2024 24.7836 88.3347 24.1435 88.5994 23.5895C88.8671 23.0324 89.2395 22.5985 89.7166 22.2876C90.1967 21.9737 90.7568 21.8168 91.397 21.8168C91.7663 21.8168 92.131 21.8783 92.4911 22.0014C92.8512 22.1245 93.1789 22.3246 93.4744 22.6016C93.7698 22.8755 94.0053 23.2386 94.1807 23.6911C94.3561 24.1435 94.4438 24.7005 94.4438 25.3622V25.8239H88.9779V24.8821H93.3359C93.3359 24.482 93.2559 24.125 93.0958 23.8111C92.9389 23.4972 92.7142 23.2494 92.4218 23.0678C92.1325 22.8862 91.7909 22.7955 91.397 22.7955C90.963 22.7955 90.5876 22.9032 90.2706 23.1186C89.9566 23.331 89.715 23.608 89.5458 23.9496C89.3765 24.2912 89.2919 24.6574 89.2919 25.0483V25.6761C89.2919 26.2116 89.3842 26.6656 89.5688 27.038C89.7566 27.4073 90.0166 27.6889 90.349 27.8828C90.6814 28.0736 91.0677 28.169 91.5078 28.169C91.794 28.169 92.0525 28.129 92.2833 28.049C92.5172 27.9659 92.7188 27.8428 92.8881 27.6797C93.0574 27.5135 93.1882 27.3073 93.2805 27.0611L94.3331 27.3565C94.2223 27.7135 94.0361 28.0275 93.7745 28.2983C93.5129 28.5661 93.1897 28.7753 92.805 28.9261C92.4203 29.0739 91.9879 29.1477 91.5078 29.1477ZM101.124 23.4972L100.145 23.7741C100.084 23.611 99.9929 23.4525 99.8728 23.2987C99.7559 23.1417 99.5958 23.0124 99.3927 22.9109C99.1896 22.8093 98.9295 22.7585 98.6125 22.7585C98.1786 22.7585 97.817 22.8585 97.5277 23.0586C97.2414 23.2556 97.0983 23.5064 97.0983 23.8111C97.0983 24.0819 97.1968 24.2958 97.3938 24.4528C97.5907 24.6097 97.8985 24.7405 98.3171 24.8452L99.3696 25.1037C100.004 25.2576 100.476 25.493 100.787 25.81C101.098 26.1239 101.253 26.5286 101.253 27.0241C101.253 27.4304 101.136 27.7936 100.902 28.1136C100.671 28.4337 100.348 28.6861 99.9328 28.8707C99.5174 29.0554 99.0342 29.1477 98.4833 29.1477C97.76 29.1477 97.1614 28.9908 96.6875 28.6768C96.2135 28.3629 95.9134 27.9044 95.7872 27.3011L96.8213 27.0426C96.9198 27.4242 97.106 27.7105 97.3799 27.9013C97.6569 28.0921 98.0185 28.1875 98.4648 28.1875C98.9726 28.1875 99.3758 28.0798 99.6743 27.8643C99.9759 27.6458 100.127 27.3842 100.127 27.0795C100.127 26.8333 100.041 26.6271 99.8682 26.4609C99.6959 26.2917 99.4312 26.1655 99.0742 26.0824L97.8924 25.8054C97.243 25.6515 96.7659 25.413 96.4612 25.0898C96.1596 24.7636 96.0088 24.3558 96.0088 23.8665C96.0088 23.4664 96.1212 23.1125 96.3458 22.8047C96.5736 22.4969 96.8829 22.2553 97.2737 22.0799C97.6677 21.9045 98.1139 21.8168 98.6125 21.8168C99.3142 21.8168 99.8651 21.9706 100.265 22.2784C100.668 22.5862 100.955 22.9924 101.124 23.4972ZM108.636 29.1662C108.187 29.1662 107.779 29.0816 107.413 28.9123C107.046 28.7399 106.756 28.4922 106.54 28.169C106.325 27.8428 106.217 27.4489 106.217 26.9872C106.217 26.581 106.297 26.2517 106.457 25.9993C106.617 25.7438 106.831 25.5438 107.099 25.3991C107.367 25.2545 107.662 25.1468 107.985 25.076C108.311 25.0021 108.639 24.9437 108.968 24.9006C109.399 24.8452 109.749 24.8036 110.016 24.7759C110.287 24.7451 110.484 24.6944 110.607 24.6236C110.733 24.5528 110.797 24.4297 110.797 24.2543V24.2173C110.797 23.7618 110.672 23.4079 110.423 23.1555C110.176 22.9032 109.802 22.777 109.301 22.777C108.781 22.777 108.373 22.8909 108.077 23.1186C107.782 23.3464 107.574 23.5895 107.454 23.848L106.42 23.4787C106.605 23.0478 106.851 22.7124 107.159 22.4723C107.47 22.2292 107.808 22.0599 108.174 21.9645C108.544 21.866 108.907 21.8168 109.264 21.8168C109.492 21.8168 109.753 21.8445 110.049 21.8999C110.347 21.9522 110.635 22.0614 110.912 22.2276C111.192 22.3938 111.424 22.6446 111.609 22.9801C111.794 23.3156 111.886 23.7649 111.886 24.3281V29H110.797V28.0398H110.741C110.667 28.1937 110.544 28.3583 110.372 28.5337C110.2 28.7092 109.97 28.8584 109.684 28.9815C109.398 29.1046 109.048 29.1662 108.636 29.1662ZM108.802 28.1875C109.233 28.1875 109.596 28.1029 109.892 27.9336C110.19 27.7643 110.415 27.5458 110.566 27.2781C110.72 27.0103 110.797 26.7287 110.797 26.4332V25.4361C110.75 25.4915 110.649 25.5423 110.492 25.5884C110.338 25.6315 110.159 25.67 109.956 25.7038C109.756 25.7346 109.561 25.7623 109.37 25.7869C109.182 25.8085 109.03 25.8269 108.913 25.8423C108.63 25.8793 108.365 25.9393 108.119 26.0224C107.876 26.1024 107.679 26.224 107.528 26.3871C107.38 26.5471 107.307 26.7656 107.307 27.0426C107.307 27.4212 107.447 27.7074 107.727 27.9013C108.01 28.0921 108.368 28.1875 108.802 28.1875ZM114.964 24.7344V29H113.875V21.9091H114.927V23.017H115.019C115.186 22.657 115.438 22.3677 115.777 22.1491C116.115 21.9276 116.552 21.8168 117.088 21.8168C117.568 21.8168 117.988 21.9152 118.348 22.1122C118.708 22.3061 118.988 22.6016 119.188 22.9986C119.388 23.3925 119.488 23.8911 119.488 24.4943V29H118.399V24.5682C118.399 24.0111 118.254 23.5772 117.965 23.2663C117.676 22.9524 117.278 22.7955 116.774 22.7955C116.426 22.7955 116.115 22.8709 115.841 23.0217C115.57 23.1725 115.356 23.3925 115.2 23.6818C115.043 23.9711 114.964 24.322 114.964 24.7344ZM124.157 29.1477C123.566 29.1477 123.044 28.9985 122.592 28.6999C122.139 28.3983 121.785 27.9736 121.53 27.4258C121.274 26.8749 121.147 26.224 121.147 25.473C121.147 24.7282 121.274 24.0819 121.53 23.5341C121.785 22.9863 122.141 22.5631 122.596 22.2646C123.052 21.966 123.578 21.8168 124.175 21.8168C124.637 21.8168 125.001 21.8937 125.269 22.0476C125.54 22.1984 125.746 22.3707 125.888 22.5646C126.032 22.7554 126.145 22.9124 126.225 23.0355H126.317V19.5455H127.407V29H126.354V27.9105H126.225C126.145 28.0398 126.031 28.2029 125.883 28.3999C125.735 28.5937 125.525 28.7676 125.251 28.9215C124.977 29.0723 124.612 29.1477 124.157 29.1477ZM124.304 28.169C124.741 28.169 125.111 28.0552 125.412 27.8274C125.714 27.5966 125.943 27.2781 126.1 26.8718C126.257 26.4625 126.336 25.9901 126.336 25.4545C126.336 24.9252 126.259 24.462 126.105 24.065C125.951 23.6649 125.723 23.354 125.422 23.1325C125.12 22.9078 124.748 22.7955 124.304 22.7955C123.843 22.7955 123.458 22.9139 123.15 23.1509C122.846 23.3848 122.616 23.7034 122.462 24.1065C122.312 24.5066 122.236 24.956 122.236 25.4545C122.236 25.9593 122.313 26.4179 122.467 26.8303C122.624 27.2396 122.855 27.5658 123.159 27.8089C123.467 28.049 123.849 28.169 124.304 28.169ZM136.293 21.9091V22.8324H132.619V21.9091H136.293ZM133.69 20.2102H134.779V26.9688C134.779 27.2765 134.824 27.5073 134.913 27.6612C135.005 27.812 135.122 27.9136 135.264 27.9659C135.409 28.0152 135.561 28.0398 135.721 28.0398C135.841 28.0398 135.939 28.0336 136.016 28.0213C136.093 28.0059 136.155 27.9936 136.201 27.9844L136.423 28.9631C136.349 28.9908 136.246 29.0185 136.113 29.0462C135.981 29.0769 135.813 29.0923 135.61 29.0923C135.302 29.0923 135.001 29.0262 134.705 28.8938C134.413 28.7615 134.17 28.5599 133.976 28.2891C133.785 28.0182 133.69 27.6766 133.69 27.2642V20.2102ZM139.174 24.7344V29H138.085V19.5455H139.174V23.017H139.266C139.433 22.6508 139.682 22.36 140.014 22.1445C140.35 21.926 140.796 21.8168 141.353 21.8168C141.836 21.8168 142.259 21.9137 142.623 22.1076C142.986 22.2984 143.267 22.5923 143.467 22.9893C143.67 23.3833 143.772 23.8849 143.772 24.4943V29H142.683V24.5682C142.683 24.005 142.536 23.5695 142.244 23.2617C141.955 22.9509 141.553 22.7955 141.039 22.7955C140.682 22.7955 140.362 22.8709 140.079 23.0217C139.799 23.1725 139.577 23.3925 139.414 23.6818C139.254 23.9711 139.174 24.322 139.174 24.7344ZM148.738 29.1477C148.055 29.1477 147.466 28.9969 146.97 28.6953C146.478 28.3906 146.098 27.9659 145.83 27.4212C145.565 26.8733 145.433 26.2363 145.433 25.5099C145.433 24.7836 145.565 24.1435 145.83 23.5895C146.098 23.0324 146.47 22.5985 146.947 22.2876C147.427 21.9737 147.987 21.8168 148.627 21.8168C148.997 21.8168 149.361 21.8783 149.722 22.0014C150.082 22.1245 150.409 22.3246 150.705 22.6016C151 22.8755 151.236 23.2386 151.411 23.6911C151.587 24.1435 151.674 24.7005 151.674 25.3622V25.8239H146.208V24.8821H150.566C150.566 24.482 150.486 24.125 150.326 23.8111C150.169 23.4972 149.945 23.2494 149.652 23.0678C149.363 22.8862 149.021 22.7955 148.627 22.7955C148.193 22.7955 147.818 22.9032 147.501 23.1186C147.187 23.331 146.946 23.608 146.776 23.9496C146.607 24.2912 146.522 24.6574 146.522 25.0483V25.6761C146.522 26.2116 146.615 26.6656 146.799 27.038C146.987 27.4073 147.247 27.6889 147.58 27.8828C147.912 28.0736 148.298 28.169 148.738 28.169C149.024 28.169 149.283 28.129 149.514 28.049C149.748 27.9659 149.949 27.8428 150.119 27.6797C150.288 27.5135 150.419 27.3073 150.511 27.0611L151.564 27.3565C151.453 27.7135 151.267 28.0275 151.005 28.2983C150.743 28.5661 150.42 28.7753 150.035 28.9261C149.651 29.0739 149.218 29.1477 148.738 29.1477ZM157.136 29V19.5455H162.842V20.5611H158.28V23.7557H162.546V24.7713H158.28V27.9844H162.915V29H157.136ZM165.847 24.7344V29H164.757V21.9091H165.81V23.017H165.902C166.068 22.657 166.321 22.3677 166.659 22.1491C166.998 21.9276 167.435 21.8168 167.97 21.8168C168.451 21.8168 168.871 21.9152 169.231 22.1122C169.591 22.3061 169.871 22.6016 170.071 22.9986C170.271 23.3925 170.371 23.8911 170.371 24.4943V29H169.282V24.5682C169.282 24.0111 169.137 23.5772 168.848 23.2663C168.558 22.9524 168.161 22.7955 167.657 22.7955C167.309 22.7955 166.998 22.8709 166.724 23.0217C166.453 23.1725 166.239 23.3925 166.082 23.6818C165.925 23.9711 165.847 24.322 165.847 24.7344ZM177.906 21.9091L175.284 29H174.176L171.554 21.9091H172.736L174.693 27.5597H174.767L176.724 21.9091H177.906ZM179.344 29V21.9091H180.434V29H179.344ZM179.898 20.7273C179.686 20.7273 179.503 20.6549 179.349 20.5103C179.198 20.3656 179.123 20.1918 179.123 19.9886C179.123 19.7855 179.198 19.6116 179.349 19.467C179.503 19.3223 179.686 19.25 179.898 19.25C180.111 19.25 180.292 19.3223 180.443 19.467C180.597 19.6116 180.674 19.7855 180.674 19.9886C180.674 20.1918 180.597 20.3656 180.443 20.5103C180.292 20.6549 180.111 20.7273 179.898 20.7273ZM182.429 29V21.9091H183.482V22.9801H183.556C183.685 22.6293 183.919 22.3446 184.257 22.1261C184.596 21.9076 184.978 21.7983 185.402 21.7983C185.482 21.7983 185.582 21.7998 185.702 21.8029C185.822 21.806 185.913 21.8106 185.975 21.8168V22.9247C185.938 22.9155 185.853 22.9016 185.721 22.8832C185.592 22.8616 185.455 22.8509 185.31 22.8509C184.965 22.8509 184.658 22.9232 184.387 23.0678C184.119 23.2094 183.907 23.4064 183.75 23.6587C183.596 23.908 183.519 24.1927 183.519 24.5128V29H182.429ZM189.931 29.1477C189.291 29.1477 188.729 28.9954 188.246 28.6907C187.766 28.386 187.39 27.9598 187.12 27.4119C186.852 26.8641 186.718 26.224 186.718 25.4915C186.718 24.7528 186.852 24.1081 187.12 23.5572C187.39 23.0063 187.766 22.5785 188.246 22.2738C188.729 21.9691 189.291 21.8168 189.931 21.8168C190.571 21.8168 191.131 21.9691 191.611 22.2738C192.095 22.5785 192.47 23.0063 192.738 23.5572C193.009 24.1081 193.144 24.7528 193.144 25.4915C193.144 26.224 193.009 26.8641 192.738 27.4119C192.47 27.9598 192.095 28.386 191.611 28.6907C191.131 28.9954 190.571 29.1477 189.931 29.1477ZM189.931 28.169C190.417 28.169 190.817 28.0444 191.131 27.7951C191.445 27.5458 191.678 27.218 191.828 26.8118C191.979 26.4055 192.055 25.9654 192.055 25.4915C192.055 25.0175 191.979 24.5759 191.828 24.1665C191.678 23.7572 191.445 23.4264 191.131 23.174C190.817 22.9216 190.417 22.7955 189.931 22.7955C189.445 22.7955 189.045 22.9216 188.731 23.174C188.417 23.4264 188.184 23.7572 188.034 24.1665C187.883 24.5759 187.807 25.0175 187.807 25.4915C187.807 25.9654 187.883 26.4055 188.034 26.8118C188.184 27.218 188.417 27.5458 188.731 27.7951C189.045 28.0444 189.445 28.169 189.931 28.169ZM195.897 24.7344V29H194.807V21.9091H195.86V23.017H195.952C196.118 22.657 196.371 22.3677 196.709 22.1491C197.048 21.9276 197.485 21.8168 198.02 21.8168C198.5 21.8168 198.92 21.9152 199.281 22.1122C199.641 22.3061 199.921 22.6016 200.121 22.9986C200.321 23.3925 200.421 23.8911 200.421 24.4943V29H199.331V24.5682C199.331 24.0111 199.187 23.5772 198.897 23.2663C198.608 22.9524 198.211 22.7955 197.706 22.7955C197.359 22.7955 197.048 22.8709 196.774 23.0217C196.503 23.1725 196.289 23.3925 196.132 23.6818C195.975 23.9711 195.897 24.322 195.897 24.7344ZM202.412 29V21.9091H203.464V23.017H203.557C203.704 22.6385 203.943 22.3446 204.272 22.1353C204.601 21.9229 204.997 21.8168 205.459 21.8168C205.926 21.8168 206.316 21.9229 206.627 22.1353C206.94 22.3446 207.185 22.6385 207.361 23.017H207.434C207.616 22.6508 207.888 22.36 208.252 22.1445C208.615 21.926 209.05 21.8168 209.558 21.8168C210.192 21.8168 210.711 22.0153 211.114 22.4123C211.517 22.8062 211.719 23.4202 211.719 24.2543V29H210.629V24.2543C210.629 23.7311 210.486 23.3571 210.2 23.1325C209.913 22.9078 209.576 22.7955 209.189 22.7955C208.69 22.7955 208.304 22.9463 208.03 23.2479C207.756 23.5464 207.619 23.925 207.619 24.3835V29H206.511V24.1435C206.511 23.7403 206.38 23.4156 206.119 23.1694C205.857 22.9201 205.52 22.7955 205.108 22.7955C204.825 22.7955 204.56 22.8709 204.314 23.0217C204.071 23.1725 203.874 23.3817 203.723 23.6495C203.575 23.9142 203.501 24.2204 203.501 24.5682V29H202.412ZM216.684 29.1477C216 29.1477 215.411 28.9969 214.915 28.6953C214.423 28.3906 214.043 27.9659 213.775 27.4212C213.51 26.8733 213.378 26.2363 213.378 25.5099C213.378 24.7836 213.51 24.1435 213.775 23.5895C214.043 23.0324 214.415 22.5985 214.892 22.2876C215.372 21.9737 215.933 21.8168 216.573 21.8168C216.942 21.8168 217.307 21.8783 217.667 22.0014C218.027 22.1245 218.355 22.3246 218.65 22.6016C218.946 22.8755 219.181 23.2386 219.356 23.6911C219.532 24.1435 219.62 24.7005 219.62 25.3622V25.8239H214.154V24.8821H218.512C218.512 24.482 218.432 24.125 218.272 23.8111C218.115 23.4972 217.89 23.2494 217.598 23.0678C217.308 22.8862 216.967 22.7955 216.573 22.7955C216.139 22.7955 215.763 22.9032 215.446 23.1186C215.132 23.331 214.891 23.608 214.722 23.9496C214.552 24.2912 214.468 24.6574 214.468 25.0483V25.6761C214.468 26.2116 214.56 26.6656 214.745 27.038C214.932 27.4073 215.192 27.6889 215.525 27.8828C215.857 28.0736 216.243 28.169 216.684 28.169C216.97 28.169 217.228 28.129 217.459 28.049C217.693 27.9659 217.895 27.8428 218.064 27.6797C218.233 27.5135 218.364 27.3073 218.456 27.0611L219.509 27.3565C219.398 27.7135 219.212 28.0275 218.95 28.2983C218.689 28.5661 218.365 28.7753 217.981 28.9261C217.596 29.0739 217.164 29.1477 216.684 29.1477ZM222.366 24.7344V29H221.277V21.9091H222.33V23.017H222.422C222.588 22.657 222.84 22.3677 223.179 22.1491C223.517 21.9276 223.955 21.8168 224.49 21.8168C224.97 21.8168 225.39 21.9152 225.75 22.1122C226.11 22.3061 226.39 22.6016 226.591 22.9986C226.791 23.3925 226.891 23.8911 226.891 24.4943V29H225.801V24.5682C225.801 24.0111 225.656 23.5772 225.367 23.2663C225.078 22.9524 224.681 22.7955 224.176 22.7955C223.828 22.7955 223.517 22.8709 223.244 23.0217C222.973 23.1725 222.759 23.3925 222.602 23.6818C222.445 23.9711 222.366 24.322 222.366 24.7344ZM231.965 21.9091V22.8324H228.291V21.9091H231.965ZM229.362 20.2102H230.451V26.9688C230.451 27.2765 230.496 27.5073 230.585 27.6612C230.677 27.812 230.794 27.9136 230.936 27.9659C231.08 28.0152 231.233 28.0398 231.393 28.0398C231.513 28.0398 231.611 28.0336 231.688 28.0213C231.765 28.0059 231.827 27.9936 231.873 27.9844L232.095 28.9631C232.021 28.9908 231.918 29.0185 231.785 29.0462C231.653 29.0769 231.485 29.0923 231.282 29.0923C230.974 29.0923 230.673 29.0262 230.377 28.8938C230.085 28.7615 229.842 28.5599 229.648 28.2891C229.457 28.0182 229.362 27.6766 229.362 27.2642V20.2102ZM237.408 19.5455H238.775L241.988 27.3935H242.098L245.311 19.5455H246.678V29H245.607V21.8168H245.515L242.56 29H241.526L238.571 21.8168H238.479V29H237.408V19.5455ZM251.706 29.1477C251.066 29.1477 250.505 28.9954 250.021 28.6907C249.541 28.386 249.166 27.9598 248.895 27.4119C248.627 26.8641 248.493 26.224 248.493 25.4915C248.493 24.7528 248.627 24.1081 248.895 23.5572C249.166 23.0063 249.541 22.5785 250.021 22.2738C250.505 21.9691 251.066 21.8168 251.706 21.8168C252.347 21.8168 252.907 21.9691 253.387 22.2738C253.87 22.5785 254.246 23.0063 254.513 23.5572C254.784 24.1081 254.92 24.7528 254.92 25.4915C254.92 26.224 254.784 26.8641 254.513 27.4119C254.246 27.9598 253.87 28.386 253.387 28.6907C252.907 28.9954 252.347 29.1477 251.706 29.1477ZM251.706 28.169C252.193 28.169 252.593 28.0444 252.907 27.7951C253.221 27.5458 253.453 27.218 253.604 26.8118C253.755 26.4055 253.83 25.9654 253.83 25.4915C253.83 25.0175 253.755 24.5759 253.604 24.1665C253.453 23.7572 253.221 23.4264 252.907 23.174C252.593 22.9216 252.193 22.7955 251.706 22.7955C251.22 22.7955 250.82 22.9216 250.506 23.174C250.192 23.4264 249.96 23.7572 249.809 24.1665C249.658 24.5759 249.583 25.0175 249.583 25.4915C249.583 25.9654 249.658 26.4055 249.809 26.8118C249.96 27.218 250.192 27.5458 250.506 27.7951C250.82 28.0444 251.22 28.169 251.706 28.169ZM259.26 29.1477C258.669 29.1477 258.148 28.9985 257.695 28.6999C257.243 28.3983 256.889 27.9736 256.633 27.4258C256.378 26.8749 256.25 26.224 256.25 25.473C256.25 24.7282 256.378 24.0819 256.633 23.5341C256.889 22.9863 257.244 22.5631 257.7 22.2646C258.155 21.966 258.682 21.8168 259.279 21.8168C259.74 21.8168 260.105 21.8937 260.373 22.0476C260.644 22.1984 260.85 22.3707 260.991 22.5646C261.136 22.7554 261.248 22.9124 261.328 23.0355H261.421V19.5455H262.51V29H261.458V27.9105H261.328C261.248 28.0398 261.134 28.2029 260.987 28.3999C260.839 28.5937 260.628 28.7676 260.354 28.9215C260.08 29.0723 259.716 29.1477 259.26 29.1477ZM259.408 28.169C259.845 28.169 260.214 28.0552 260.516 27.8274C260.817 27.5966 261.047 27.2781 261.204 26.8718C261.361 26.4625 261.439 25.9901 261.439 25.4545C261.439 24.9252 261.362 24.462 261.208 24.065C261.054 23.6649 260.827 23.354 260.525 23.1325C260.223 22.9078 259.851 22.7955 259.408 22.7955C258.946 22.7955 258.562 22.9139 258.254 23.1509C257.949 23.3848 257.72 23.7034 257.566 24.1065C257.415 24.5066 257.34 24.956 257.34 25.4545C257.34 25.9593 257.417 26.4179 257.571 26.8303C257.727 27.2396 257.958 27.5658 258.263 27.8089C258.571 28.049 258.952 28.169 259.408 28.169ZM267.63 29.1477C266.947 29.1477 266.357 28.9969 265.862 28.6953C265.369 28.3906 264.989 27.9659 264.721 27.4212C264.457 26.8733 264.324 26.2363 264.324 25.5099C264.324 24.7836 264.457 24.1435 264.721 23.5895C264.989 23.0324 265.362 22.5985 265.839 22.2876C266.319 21.9737 266.879 21.8168 267.519 21.8168C267.888 21.8168 268.253 21.8783 268.613 22.0014C268.973 22.1245 269.301 22.3246 269.596 22.6016C269.892 22.8755 270.127 23.2386 270.303 23.6911C270.478 24.1435 270.566 24.7005 270.566 25.3622V25.8239H265.1V24.8821H269.458C269.458 24.482 269.378 24.125 269.218 23.8111C269.061 23.4972 268.836 23.2494 268.544 23.0678C268.255 22.8862 267.913 22.7955 267.519 22.7955C267.085 22.7955 266.71 22.9032 266.393 23.1186C266.079 23.331 265.837 23.608 265.668 23.9496C265.499 24.2912 265.414 24.6574 265.414 25.0483V25.6761C265.414 26.2116 265.506 26.6656 265.691 27.038C265.879 27.4073 266.139 27.6889 266.471 27.8828C266.803 28.0736 267.19 28.169 267.63 28.169C267.916 28.169 268.175 28.129 268.405 28.049C268.639 27.9659 268.841 27.8428 269.01 27.6797C269.179 27.5135 269.31 27.3073 269.403 27.0611L270.455 27.3565C270.344 27.7135 270.158 28.0275 269.897 28.2983C269.635 28.5661 269.312 28.7753 268.927 28.9261C268.542 29.0739 268.11 29.1477 267.63 29.1477ZM273.313 19.5455V29H272.223V19.5455H273.313Z"
		fill="black" />
	<path d="M103.764 327L81 219V174V134.735L149 49" stroke="black" />
</svg>